<svg width="16" height="16" viewBox="0 0 16 16" fill="none" xmlns="http://www.w3.org/2000/svg">
<path fill-rule="evenodd" clip-rule="evenodd" d="M15.8326 0.167384C15.9923 0.327064 16.043 0.565805 15.9619 0.776575L10.2476 15.6337C10.161 15.8588 9.94243 16.0053 9.7013 15.9999C9.46017 15.9944 9.24844 15.8381 9.17217 15.6093L6.97681 9.02319L0.390728 6.82783C0.161913 6.75156 0.00562586 6.53983 0.000148477 6.2987C-0.00532891 6.05757 0.141183 5.83897 0.366298 5.75238L15.2234 0.0381047C15.4342 -0.0429606 15.6729 0.00770371 15.8326 0.167384ZM2.26316 6.24729L7.60927 8.02933C7.7799 8.08621 7.91379 8.2201 7.97067 8.39073L9.7527 13.7368L14.4337 1.56633L2.26316 6.24729Z" fill="#111119"/>
</svg>
