<svg width="21" height="22" viewBox="0 0 21 22" fill="none" xmlns="http://www.w3.org/2000/svg">
<path d="M7.68245 3.69231L8.36694 1.98462C8.48238 1.69548 8.68549 1.44679 8.94964 1.2711C9.21379 1.09541 9.5267 1.00092 9.84736 1H11.1527C11.4733 1.00092 11.7862 1.09541 12.0504 1.2711C12.3146 1.44679 12.5176 1.69548 12.6331 1.98462L13.3176 3.69231L15.6417 4.98462L17.5201 4.70769C17.8329 4.66666 18.1511 4.71642 18.4346 4.85065C18.7181 4.98488 18.9538 5.19751 19.1119 5.46154L19.7486 6.53846C19.9118 6.80669 19.9869 7.11643 19.9642 7.4268C19.9414 7.73717 19.8219 8.03358 19.6213 8.27692L18.4593 9.70769V12.2923L19.6531 13.7231C19.8537 13.9664 19.9733 14.2628 19.996 14.5732C20.0188 14.8836 19.9436 15.1933 19.7805 15.4615L19.1437 16.5385C18.9857 16.8025 18.7499 17.0151 18.4664 17.1494C18.1829 17.2835 17.8647 17.3334 17.5519 17.2923L15.6735 17.0154L13.3494 18.3077L12.6649 20.0154C12.5495 20.3045 12.3464 20.5532 12.0822 20.7289C11.8181 20.9046 11.5052 20.9991 11.1845 21H9.84736C9.5267 20.9991 9.21379 20.9046 8.94964 20.7289C8.68549 20.5532 8.48238 20.3045 8.36694 20.0154L7.68245 18.3077L5.35836 17.0154L3.47999 17.2923C3.16722 17.3334 2.84889 17.2835 2.56544 17.1494C2.28202 17.0151 2.04625 16.8025 1.88815 16.5385L1.25141 15.4615C1.08825 15.1933 1.01308 14.8836 1.03581 14.5732C1.05854 14.2628 1.17812 13.9664 1.37876 13.7231L2.5408 12.2923V9.70769L1.34692 8.27692C1.14628 8.03358 1.02671 7.73717 1.00397 7.4268C0.981243 7.11643 1.05641 6.80669 1.21957 6.53846L1.85631 5.46154C2.01441 5.19751 2.25018 4.98488 2.53361 4.85065C2.81705 4.71642 3.13539 4.66666 3.44815 4.70769L5.32653 4.98462L7.68245 3.69231ZM7.31633 11C7.31633 11.6086 7.50305 12.2034 7.85287 12.7094C8.2027 13.2154 8.69992 13.6098 9.28166 13.8427C9.86342 14.0756 10.5035 14.1365 11.1211 14.0178C11.7387 13.8991 12.306 13.606 12.7512 13.1757C13.1965 12.7454 13.4997 12.1971 13.6225 11.6003C13.7454 11.0034 13.6823 10.3848 13.4414 9.82251C13.2004 9.26028 12.7923 8.77972 12.2688 8.44163C11.7452 8.10354 11.1297 7.92308 10.5 7.92308C9.65565 7.92308 8.84586 8.24725 8.24881 8.82429C7.65174 9.40132 7.31633 10.184 7.31633 11Z" stroke="#111119" stroke-width="1.71429" stroke-linecap="round" stroke-linejoin="round"/>
</svg>
