<svg width="16" height="16" viewBox="0 0 16 16" fill="none" xmlns="http://www.w3.org/2000/svg">
<path fill-rule="evenodd" clip-rule="evenodd" d="M1.88817 2.44513C3.53478 0.873441 5.72429 -0.00236194 8.00059 0.000157331C8.00078 0.000157331 8.00039 0.000157331 8.00059 0.000157331C9.58263 0.000273933 11.1291 0.469458 12.4446 1.3484C13.7602 2.22745 14.7855 3.47688 15.391 4.93869C15.9965 6.4005 16.155 8.00903 15.8463 9.56088C15.5376 11.1127 14.7757 12.5382 13.6569 13.657C12.538 14.7758 11.1126 15.5378 9.56072 15.8464C8.00887 16.1551 6.40034 15.9967 4.93853 15.3912C3.47672 14.7857 2.22729 13.7603 1.34824 12.4447C0.469192 11.1291 0 9.58241 0 8.00015C0 7.7056 0.238781 7.46682 0.533333 7.46682C0.827885 7.46682 1.06667 7.7056 1.06667 8.00015C1.06667 9.37144 1.4733 10.7119 2.23514 11.8521C2.99699 12.9923 4.07983 13.881 5.34673 14.4057C6.61363 14.9305 8.00769 15.0678 9.35262 14.8003C10.6976 14.5327 11.933 13.8724 12.9026 12.9028C13.8722 11.9331 14.5326 10.6977 14.8001 9.35278C15.0676 8.00785 14.9303 6.61378 14.4056 5.34688C13.8808 4.07998 12.9921 2.99714 11.852 2.2353C10.7118 1.47346 9.37128 1.06682 8 1.06682C5.99841 1.06461 4.07255 1.83472 2.62465 3.21673C2.41158 3.4201 2.07399 3.41224 1.87061 3.19917C1.66724 2.9861 1.6751 2.6485 1.88817 2.44513Z" fill="#111119"/>
<path fill-rule="evenodd" clip-rule="evenodd" d="M2.95983 0.0160502C3.24558 0.0874895 3.41932 0.377055 3.34788 0.662812L2.90288 2.44284L4.6829 2.88784C4.96866 2.95928 5.1424 3.24885 5.07096 3.53461C4.99952 3.82036 4.70996 3.9941 4.4242 3.92266L2.12676 3.3483C1.84101 3.27687 1.66727 2.9873 1.73871 2.70154L2.31307 0.404107C2.3845 0.11835 2.67407 -0.0553892 2.95983 0.0160502Z" fill="#111119"/>
<path fill-rule="evenodd" clip-rule="evenodd" d="M7.99963 3.44622C8.29418 3.44622 8.53296 3.68501 8.53296 3.97956V8.57443C8.53296 8.77644 8.41883 8.96111 8.23814 9.05146L5.25148 10.5448C4.98802 10.6765 4.66766 10.5697 4.53594 10.3063C4.40421 10.0428 4.51099 9.72246 4.77445 9.59073L7.4663 8.24481V3.97956C7.4663 3.68501 7.70508 3.44622 7.99963 3.44622Z" fill="#111119"/>
</svg>
