<svg width="24" height="24" viewBox="0 0 24 24" fill="none" xmlns="http://www.w3.org/2000/svg">
<path d="M16.2857 18V21.4286C16.2857 21.8832 16.1051 22.3193 15.7837 22.6407C15.4622 22.9622 15.0261 23.1429 14.5715 23.1429H2.57146C2.1168 23.1429 1.68077 22.9622 1.35928 22.6407C1.03779 22.3193 0.857178 21.8832 0.857178 21.4286V2.57143C0.857178 2.11677 1.03779 1.68074 1.35928 1.35925C1.68077 1.03776 2.1168 0.857147 2.57146 0.857147H14.5715C15.0261 0.857147 15.4622 1.03776 15.7837 1.35925C16.1051 1.68074 16.2857 2.11677 16.2857 2.57143V6M11.1429 12H23.1429M23.1429 12L19.7143 8.57143M23.1429 12L19.7143 15.4286" stroke="black" stroke-width="1.71429" stroke-linecap="round" stroke-linejoin="round"/>
</svg>
