<svg width="16" height="16" viewBox="0 0 16 16" fill="none" xmlns="http://www.w3.org/2000/svg">
<rect width="16" height="16" rx="5" fill="#E8E8E9"/>
<path fill-rule="evenodd" clip-rule="evenodd" d="M5.03772 5.03772C5.08802 4.98743 5.16957 4.98743 5.21987 5.03772L10.9623 10.7802C11.0126 10.8304 11.0126 10.912 10.9623 10.9623C10.912 11.0126 10.8304 11.0126 10.7802 10.9623L5.03772 5.21987C4.98743 5.16957 4.98743 5.08802 5.03772 5.03772Z" fill="#111119" stroke="#111119" stroke-width="0.5" stroke-linecap="round"/>
<path fill-rule="evenodd" clip-rule="evenodd" d="M10.9623 5.03772C11.0126 5.08802 11.0126 5.16957 10.9623 5.21987L5.21985 10.9623C5.16955 11.0126 5.088 11.0126 5.0377 10.9623C4.98741 10.912 4.98741 10.8304 5.0377 10.7802L10.7801 5.03772C10.8304 4.98743 10.912 4.98743 10.9623 5.03772Z" fill="#111119" stroke="#111119" stroke-width="0.5" stroke-linecap="round"/>
</svg>
