<svg width="16" height="16" viewBox="0 0 16 16" fill="none" xmlns="http://www.w3.org/2000/svg">
<path fill-rule="evenodd" clip-rule="evenodd" d="M0.167291 0.167444C0.274461 0.0602335 0.419839 0 0.571429 0H15.4286V0.571429L16 0.571644C15.9993 2.37275 15.3917 4.12109 14.2753 5.53447C13.253 6.82868 11.8587 7.77289 10.2857 8.24366V13.1429C10.2857 13.3339 10.1902 13.5123 10.0313 13.6183L6.60269 15.904C6.42734 16.0209 6.20189 16.0318 6.01608 15.9324C5.83028 15.8329 5.71429 15.6393 5.71429 15.4286V8.24366C4.14127 7.77289 2.74695 6.82868 1.72467 5.53447C0.608257 4.12109 0.000679573 2.37275 4.07118e-08 0.571644C-5.714e-05 0.420055 0.0601215 0.274654 0.167291 0.167444ZM14.8331 1.14286H1.16689C1.27927 2.48255 1.78298 3.76451 2.62149 4.82607C3.57864 6.03783 4.91619 6.8917 6.41826 7.24987C6.67558 7.31123 6.85714 7.54118 6.85714 7.80571V14.3608L9.14286 12.837V7.80571C9.14286 7.54118 9.32442 7.31123 9.58174 7.24987C11.0838 6.8917 12.4214 6.03783 13.3785 4.82607C14.217 3.76451 14.7207 2.48255 14.8331 1.14286Z" fill="#484857"/>
</svg>
